<?xml version="1.0" standalone="no"?><!DOCTYPE svg PUBLIC "-//W3C//DTD SVG 1.1//EN" "http://www.w3.org/Graphics/SVG/1.1/DTD/svg11.dtd"><svg t="1732766637807" class="icon" viewBox="0 0 1024 1024" version="1.1" xmlns="http://www.w3.org/2000/svg" p-id="5513" width="256" height="256" xmlns:xlink="http://www.w3.org/1999/xlink"><path d="M827.913524 469.345635a247.679448 247.679448 0 0 0 3.113289-39.850101c0-137.676565-104.772557-250.031711-234.188528-250.031711a229.594697 229.594697 0 0 0-36.999712 3.293168 229.816087 229.816087 0 0 0-36.003459 9.312194 230.10666 230.10666 0 0 0-98.117037 66.375325 238.062844 238.062844 0 0 0-26.345345 36.695301 211.357741 211.357741 0 0 0-100.649179 11.166331 216.242146 216.242146 0 0 0-38.245028 18.541366 215.74402 215.74402 0 0 0-41.64889 33.277602 218.760451 218.760451 0 0 0-32.475065 42.617469 222.164314 222.164314 0 0 0-24.186797 59.830499 223.506487 223.506487 0 0 0-6.185068 42.783512 225.900261 225.900261 0 0 0 1.0516 35.007206 178.218508 178.218508 0 0 0-23.024503 18.00173 180.141829 180.141829 0 0 0-10.170078 10.128567 180.722976 180.722976 0 0 0-11.885846 13.989046 185.648891 185.648891 0 0 0-17.323725 27.120208 191.584896 191.584896 0 0 0-15.137503 38.604786 190.754685 190.754685 0 0 0 6.586336 119.619487 187.66907 187.66907 0 0 0 27.396944 47.405016 170.469877 170.469877 0 0 0 18.735083 22.374171 167.176709 167.176709 0 0 0 28.324012 22.747767 161.033152 161.033152 0 0 0 19.081004 10.432977 149.74229 149.74229 0 0 0 9.990199 4.234074 191.08677 191.08677 0 0 0 10.253098 3.569905 211.911215 211.911215 0 0 0 6.946095 1.992505H791.052181c89.109254 0 163.191699-91.848948 163.191698-206.542521 0-99.016432-54.019026-182.037476-126.302681-202.709716z m-65.268377 370.730472H214.803114s-103.458058-39.670222-101.008936-152.523495c0-73.349092 72.781782-125.029692 85.013549-130.522918a189.841454 189.841454 0 0 1-4.7322-37.677717v-5.174978A185.704239 185.704239 0 0 1 207.55261 444.674548a183.960797 183.960797 0 0 1 21.405592-38.71548 179.768234 179.768234 0 0 1 66.707409-56.080715 174.150477 174.150477 0 0 1 41.30297-14.01672 172.407035 172.407035 0 0 1 34.675122-3.542231h9.312194a180.75065 180.75065 0 0 1 37.041223 6.005189 217.542809 217.542809 0 0 1 30.288844-49.01009 197.936006 197.936006 0 0 1 53.756126-45.301816 197.174979 197.174979 0 0 1 26.428365-12.591525 193.203806 193.203806 0 0 1 51.057942-12.093399 194.767369 194.767369 0 0 1 17.489767-0.871721 197.659269 197.659269 0 0 1 58.502162 10.239262 201.810321 201.810321 0 0 1 36.294033 16.299799 201.575095 201.575095 0 0 1 39.863938 30.025944 203.027963 203.027963 0 0 1 20.063419 22.457192 209.074662 209.074662 0 0 1 21.322572 34.135486 215.813204 215.813204 0 0 1 8.108388 18.513693 209.074662 209.074662 0 0 1 13.22802 59.110983 204.370137 204.370137 0 0 1 0.56731 20.257135 224.558087 224.558087 0 0 1-2.767368 34.841165 199.042953 199.042953 0 0 1-8.648025 35.671375c77.015855 7.333526 134.950707 89.856443 134.950707 172.545403 0 93.011243-62.168925 168.020756-155.194005 167.52263h-0.650331z" p-id="5514"></path><path d="M723.473051 475.682908L641.891038 749.901416a23.688671 23.688671 0 0 1-3.597578 7.333526 23.411934 23.411934 0 0 1-4.787547 5.34102 23.660998 23.660998 0 0 1-7.264342 4.109542 23.937734 23.937734 0 0 1-17.78034-0.498126 24.933987 24.933987 0 0 1-7.112136-4.676852 24.39435 24.39435 0 0 1-5.119631-6.863073 24.117613 24.117613 0 0 1-1.010089-2.255405L516.224851 552.366679a3.390026 3.390026 0 0 0-0.581147-0.940905 4.261747 4.261747 0 0 0-0.581147-0.553474 3.210147 3.210147 0 0 0-0.691842-0.428942 3.279331 3.279331 0 0 0-1.037763-0.318247 3.390026 3.390026 0 0 0-1.342174 0.055347 3.293168 3.293168 0 0 0-1.010089 0.387432 3.556068 3.556068 0 0 0-1.037763 0.871721 3.597579 3.597579 0 0 0-0.581148 0.927068l-78.980686 200.025369a26.871145 26.871145 0 0 1-2.905737 5.354857 23.771692 23.771692 0 0 1-4.081868 4.4693 23.56414 23.56414 0 0 1-6.115883 3.818968 23.494955 23.494955 0 0 1-8.149899 1.950994 23.162871 23.162871 0 0 1-7.13981-0.636494 22.401845 22.401845 0 0 1-3.431537-1.106948 22.913808 22.913808 0 0 1-6.12972-3.666763 23.937734 23.937734 0 0 1-4.801384-5.34102 24.08994 24.08994 0 0 1-3.597578-7.333526l-81.59585-274.218508a25.252234 25.252234 0 0 1-0.30441-13.324877 26.635918 26.635918 0 0 1 2.158547-5.714616 24.297492 24.297492 0 0 1 4.275584-5.894494 23.840876 23.840876 0 0 1 5.756125-4.372441 24.532718 24.532718 0 0 1 4.427789-1.867974 25.501297 25.501297 0 0 1 14.722399 0.207553 24.408187 24.408187 0 0 1 15.801672 16.46584l57.28452 193.701933a5.424042 5.424042 0 0 0 2.961084 3.099452 5.244163 5.244163 0 0 0 3.500721 0.138368 5.244163 5.244163 0 0 0 3.320842-3.23782l73.611992-186.866534a24.767945 24.767945 0 0 1 10.280773-12.010377h0.968578l2.462958-1.162295h2.435284a6.572499 6.572499 0 0 1 2.629 0 17.351398 17.351398 0 0 1 7.167483 0 6.558662 6.558662 0 0 1 2.615163 0h2.449121l2.449121 1.162295h0.968579a23.619487 23.619487 0 0 1 6.115883 5.119631 24.933987 24.933987 0 0 1 4.164889 6.890746l73.611992 186.866534a5.424042 5.424042 0 0 0 2.947247 3.099452 5.008936 5.008936 0 0 0 3.127126 0.235226 4.593831 4.593831 0 0 0 1.106948-0.415105 5.29951 5.29951 0 0 0 2.601326-2.919573l58.751225-194.200059a22.830787 22.830787 0 0 1 1.342174-3.805131 23.730182 23.730182 0 0 1 3.085615-5.147305 28.088787 28.088787 0 0 1 2.698184-2.947247 24.117613 24.117613 0 0 1 34.68896 1.909484 24.781782 24.781782 0 0 1 5.34102 9.962525 25.155376 25.155376 0 0 1 0.22139 12.591525 25.058518 25.058518 0 0 1-0.691842 2.435284z" p-id="5515"></path></svg>